#tb 0: 1/25
#media_type 0: video
#codec_id 0: rawvideo
#dimensions 0: 416x240
#sar 0: 0/1
0,          0,          0,        1,   299520, 0xd40a4b32
0,          1,          1,        1,   299520, 0x9d573409
0,          2,          2,        1,   299520, 0x03e18a25
0,          3,          3,        1,   299520, 0x896d2e32
0,          4,          4,        1,   299520, 0x7692e0ac
0,          5,          5,        1,   299520, 0xc17c9612
0,          6,          6,        1,   299520, 0x8d6566e7
0,          7,          7,        1,   299520, 0x5720f80f
0,          8,          8,        1,   299520, 0x6907eb6c
0,          9,          9,        1,   299520, 0x03e91979
0,         10,         10,        1,   299520, 0xa31e721b
0,         11,         11,        1,   299520, 0xf6f82463
0,         12,         12,        1,   299520, 0x602ffac7
0,         13,         13,        1,   299520, 0x8fbd4cfb
0,         14,         14,        1,   299520, 0x7fd5ebdb
0,         15,         15,        1,   299520, 0x45c6a0b8
0,         16,         16,        1,   299520, 0x0f644248
